<?xml version="1.0" encoding="UTF-8" standalone="no"?>
<svg
   xmlns:dc="http://purl.org/dc/elements/1.1/"
   xmlns:cc="http://creativecommons.org/ns#"
   xmlns:rdf="http://www.w3.org/1999/02/22-rdf-syntax-ns#"
   xmlns:svg="http://www.w3.org/2000/svg"
   xmlns="http://www.w3.org/2000/svg"
   xmlns:sodipodi="http://sodipodi.sourceforge.net/DTD/sodipodi-0.dtd"
   xmlns:inkscape="http://www.inkscape.org/namespaces/inkscape"
   viewBox="0 0 225 92.80764"
   version="1.1"
   id="svg4559"
   sodipodi:docname="blips-logo-white.svg"
   width="225"
   height="92.80764"
   inkscape:version="0.92.1 r15371"
   inkscape:export-filename="/home/iachim/Documents/blips-logo.svg.png"
   inkscape:export-xdpi="96"
   inkscape:export-ydpi="96">
  <metadata
     id="metadata4565">
    <rdf:RDF>
      <cc:Work
         rdf:about="">
        <dc:format>image/svg+xml</dc:format>
        <dc:type
           rdf:resource="http://purl.org/dc/dcmitype/StillImage" />
        <dc:title></dc:title>
      </cc:Work>
    </rdf:RDF>
  </metadata>
  <defs
     id="defs4563" />
  <sodipodi:namedview
     pagecolor="#ffffff"
     bordercolor="#666666"
     borderopacity="1"
     objecttolerance="10"
     gridtolerance="10"
     guidetolerance="10"
     inkscape:pageopacity="0"
     inkscape:pageshadow="2"
     inkscape:window-width="1920"
     inkscape:window-height="1025"
     id="namedview4561"
     showgrid="false"
     inkscape:snap-bbox="true"
     inkscape:snap-global="false"
     inkscape:zoom="4.085"
     inkscape:cx="122.00721"
     inkscape:cy="44.732752"
     inkscape:window-x="0"
     inkscape:window-y="27"
     inkscape:window-maximized="1"
     inkscape:current-layer="g5277" />
  <g
     id="g5277"
     style="fill:#e82463;fill-opacity:1"
     transform="matrix(0.95631802,0,0,0.95631802,-65.129181,-330.74463)">
    <g
       id="g6015"
       transform="rotate(10.877975,116.62752,394.37556)">
      <g
         id="g4526">
        <g
           transform="matrix(0.13894173,0.13159341,-0.13159341,0.13894173,115.11453,340.30915)"
           id="g5249"
           style="fill:#e82463;fill-opacity:1">
          <path
             style="color:#000000;font-style:normal;font-variant:normal;font-weight:normal;font-stretch:normal;font-size:medium;line-height:normal;font-family:sans-serif;font-variant-ligatures:normal;font-variant-position:normal;font-variant-caps:normal;font-variant-numeric:normal;font-variant-alternates:normal;font-feature-settings:normal;text-indent:0;text-align:start;text-decoration:none;text-decoration-line:none;text-decoration-style:solid;text-decoration-color:#000000;letter-spacing:normal;word-spacing:normal;text-transform:none;writing-mode:lr-tb;direction:ltr;text-orientation:mixed;dominant-baseline:auto;baseline-shift:baseline;text-anchor:start;white-space:normal;shape-padding:0;clip-rule:nonzero;display:inline;overflow:visible;visibility:visible;opacity:1;isolation:auto;mix-blend-mode:normal;color-interpolation:sRGB;color-interpolation-filters:linearRGB;solid-color:#000000;solid-opacity:1;vector-effect:none;fill:#e82463;fill-opacity:1;fill-rule:nonzero;stroke:none;stroke-width:8;stroke-linecap:butt;stroke-linejoin:miter;stroke-miterlimit:4;stroke-dasharray:none;stroke-dashoffset:0;stroke-opacity:1;color-rendering:auto;image-rendering:auto;shape-rendering:auto;text-rendering:auto;enable-background:accumulate"
             d="m 85.857422,112.81055 c -39.827992,0 -72.201172,32.37318 -72.201172,72.20117 0,39.828 32.373181,72.20117 72.201172,72.20117 39.827998,0 72.201168,-32.37318 72.201168,-72.20117 0,-5.53097 -0.68136,-10.89557 -1.86328,-16.07227 l -7.7832,1.78711 c 1.04305,4.59874 1.64453,9.36697 1.64453,14.28516 0,35.50447 -28.69475,64.20117 -64.199218,64.20117 -35.504471,0 -64.201173,-28.6967 -64.201172,-64.20117 0,-35.50447 28.6967,-64.20117 64.201172,-64.20117 4.265146,0 8.429102,0.42363 12.458984,1.21484 l -1.085937,5.49219 -1.867188,9.44726 c -3.076161,-0.60959 -6.252888,-0.93554 -9.505859,-0.93554 -27.004932,0 -48.982422,21.97749 -48.982422,48.98242 0,27.00494 21.977489,48.98242 48.982422,48.98242 27.004938,0 48.982418,-21.97749 48.982418,-48.98242 0,-3.74573 -0.51012,-7.35819 -1.31054,-10.86524 l -7.76953,1.78516 c 0.66136,2.9285 1.08007,5.94785 1.08007,9.08008 0,22.68141 -18.301,40.98242 -40.982418,40.98242 -22.681411,0 -40.984375,-18.30101 -40.984375,-40.98242 2e-6,-22.68141 18.302964,-40.98242 40.984375,-40.98242 2.724164,0 5.38243,0.27039 7.955078,0.77539 l -2.208984,11.18554 c -1.859964,-0.36971 -3.780037,-0.5664 -5.746094,-0.5664 -16.294217,0 -29.589842,13.29367 -29.589844,29.58789 -10e-7,16.29422 13.295627,29.58984 29.589844,29.58984 16.294218,0 29.587888,-13.29562 29.587888,-29.58984 0,-2.25046 -0.30511,-4.42239 -0.78515,-6.53125 l -7.76954,1.78515 c 0.34101,1.53023 0.55469,3.10938 0.55469,4.7461 0,11.9707 -9.617189,21.58984 -21.587888,21.58984 -11.9707,0 -21.589843,-9.61914 -21.589844,-21.58984 3e-6,-11.9707 9.619144,-21.58988 21.589844,-21.58984 1.437482,0 2.838741,0.14276 4.195312,0.4082 l -2.30664,11.67578 c 0.232116,0.0463 0.46239,0.10121 0.689453,0.16406 0.256742,0.0711 0.506702,0.1584 0.755859,0.25 a 9.6982744,9.6982744 0 0 0 -0.755859,-0.25 9.6982744,9.6982744 0 0 0 -0.689453,-0.16406 c -0.559724,-0.11305 -1.12834,-0.17645 -1.699219,-0.18945 -0.646765,-0.0131 -1.293215,0.0386 -1.929687,0.15429 -5.269406,0.96103 -8.761973,6.01187 -7.800782,11.28125 0.961031,5.2694 6.011874,8.76197 11.28125,7.80078 5.269406,-0.96103 8.761972,-6.01187 7.800782,-11.28125 -0.02521,-0.11638 -0.05256,-0.23228 -0.08203,-0.34765 -0.397328,-1.80864 -1.304149,-3.46572 -2.613281,-4.77539 -0.03428,-0.0315 -0.06879,-0.0627 -0.103516,-0.0937 a 9.6982744,9.6982744 0 0 0 -0.652343,-0.57227 c 0.224574,0.18179 0.443797,0.37 0.652343,0.57227 l 8.199219,-8.62891 5.47851,-5.76562 7.87696,-8.28907 5.47265,-5.75781 6.69141,-7.04297 3.82812,-4.02734 5.47266,-5.75977 c -9.73947,-9.28428 -22.04731,-15.88996 -35.753904,-18.59765 -4.532834,-0.89545 -9.21454,-1.375 -14.007812,-1.375 z m 4.4375,63.59179 c 0.07737,0.04 0.15029,0.0869 0.226562,0.12891 a 9.6982744,9.6982744 0 0 0 -0.226562,-0.12891 z m 1.08789,0.66407 c 0.124887,0.0869 0.250234,0.17274 0.371094,0.26562 a 9.6982744,9.6982744 0 0 0 -0.371094,-0.26562 z"
             transform="matrix(2.5238967,0.46034834,-0.46034834,2.5238967,68.42394,-306.67733)"
             id="path5906"
             inkscape:connector-curvature="0" />
        </g>
        <ellipse
           transform="rotate(-10.336883)"
           style="opacity:1;vector-effect:none;fill:#e82463;fill-opacity:1;stroke:none;stroke-width:4.65101433;stroke-linecap:butt;stroke-linejoin:miter;stroke-miterlimit:4;stroke-dasharray:none;stroke-dashoffset:0;stroke-opacity:1"
           id="path4977"
           cx="36.205364"
           cy="388.21545"
           rx="5.7613835"
           ry="5.761384" />
        <circle
           transform="rotate(-10.336883)"
           style="opacity:1;vector-effect:none;fill:#e82463;fill-opacity:1;stroke:none;stroke-width:4.65101433;stroke-linecap:butt;stroke-linejoin:miter;stroke-miterlimit:4;stroke-dasharray:none;stroke-dashoffset:0;stroke-opacity:1"
           id="path4977-2"
           cx="34.341152"
           cy="416.96411"
           r="5.7613835" />
        <circle
           transform="rotate(-10.336883)"
           style="opacity:1;vector-effect:none;fill:#e82463;fill-opacity:1;stroke:none;stroke-width:4.65101433;stroke-linecap:butt;stroke-linejoin:miter;stroke-miterlimit:4;stroke-dasharray:none;stroke-dashoffset:0;stroke-opacity:1"
           id="path4977-7"
           cx="53.245792"
           cy="428.9166"
           r="5.7613835" />
      </g>
    </g>
    <g
       aria-label="Blips"
       style="font-style:normal;font-variant:normal;font-weight:bold;font-stretch:normal;font-size:53.64361572px;line-height:1.25;font-family:'Noto Sans CJK TC';-inkscape-font-specification:'Noto Sans CJK TC Bold';letter-spacing:0px;word-spacing:0px;fill:#ffffff;fill-opacity:1;stroke:none;stroke-width:1.34109032"
       id="text5993"
       transform="matrix(1.0370945,0,0,1.0370945,-10.074227,-11.540707)">
      <path
         d="m 165.69961,414.04425 h 14.16191 c 8.74391,0 15.39572,-3.70141 15.39572,-11.69431 0,-5.36436 -3.16497,-8.3684 -7.45646,-9.38763 v -0.26822 c 3.37955,-1.18016 5.418,-4.93521 5.418,-8.58298 0,-7.40282 -6.22266,-9.76314 -14.37649,-9.76314 h -13.14268 z m 7.93925,-23.54955 v -10.085 h 4.72064 c 4.77428,0 7.1346,1.39474 7.1346,4.88157 0,3.16498 -2.19939,5.20343 -7.24189,5.20343 z m 0,17.43418 V 396.3955 h 5.5253 c 5.47164,0 8.3684,1.60931 8.3684,5.47165 0,4.13056 -2.9504,6.06173 -8.3684,6.06173 z"
         style="font-style:normal;font-variant:normal;font-weight:bold;font-stretch:normal;font-family:'Noto Sans CJK TC';-inkscape-font-specification:'Noto Sans CJK TC Bold';fill:#ffffff;fill-opacity:1;stroke-width:1.34109032"
         id="path5999"
         inkscape:connector-curvature="0" />
      <path
         d="m 209.02437,414.79526 c 1.82388,0 3.16497,-0.32186 4.07691,-0.69737 l -0.96558,-5.84715 c -0.53644,0.10729 -0.75101,0.10729 -1.07287,0.10729 -0.75101,0 -1.60931,-0.59008 -1.60931,-2.36032 v -34.76106 h -7.83197 v 34.38555 c 0,5.57894 1.93117,9.17306 7.40282,9.17306 z"
         style="font-style:normal;font-variant:normal;font-weight:bold;font-stretch:normal;font-family:'Noto Sans CJK TC';-inkscape-font-specification:'Noto Sans CJK TC Bold';fill:#ffffff;fill-opacity:1;stroke-width:1.34109032"
         id="path6001"
         inkscape:connector-curvature="0" />
      <path
         d="m 218.48995,414.04425 h 7.83197 v -30.04042 h -7.83197 z m 3.96963,-34.86835 c 2.68218,0 4.66699,-1.82388 4.66699,-4.29149 0,-2.57489 -1.98481,-4.29149 -4.66699,-4.29149 -2.73583,0 -4.72064,1.7166 -4.72064,4.29149 0,2.46761 1.98481,4.29149 4.72064,4.29149 z"
         style="font-style:normal;font-variant:normal;font-weight:bold;font-stretch:normal;font-family:'Noto Sans CJK TC';-inkscape-font-specification:'Noto Sans CJK TC Bold';fill:#ffffff;fill-opacity:1;stroke-width:1.34109032"
         id="path6003"
         inkscape:connector-curvature="0" />
      <path
         d="m 234.83449,425.57763 h 7.83197 v -9.11942 l -0.21457,-4.93521 c 2.30667,2.0921 4.82792,3.27226 7.45646,3.27226 6.59817,0 12.76718,-5.95444 12.76718,-16.25401 0,-9.22671 -4.39878,-15.28843 -11.80159,-15.28843 -3.21862,0 -6.32995,1.71659 -8.8512,3.86234 h -0.21458 l -0.53643,-3.11133 h -6.43724 z m 13.30362,-17.27325 c -1.60931,0 -3.54048,-0.59008 -5.47165,-2.25303 v -13.19633 c 2.0921,-2.0921 3.91599,-3.11133 5.95444,-3.11133 4.13056,0 5.95445,3.16498 5.95445,8.90484 0,6.54452 -2.78947,9.65585 -6.43724,9.65585 z"
         style="font-style:normal;font-variant:normal;font-weight:bold;font-stretch:normal;font-family:'Noto Sans CJK TC';-inkscape-font-specification:'Noto Sans CJK TC Bold';fill:#ffffff;fill-opacity:1;stroke-width:1.34109032"
         id="path6005"
         inkscape:connector-curvature="0" />
      <path
         d="m 277.67814,414.79526 c 7.83197,0 11.96253,-4.23784 11.96253,-9.49492 0,-5.57893 -4.39878,-7.56375 -8.36841,-9.06577 -3.16497,-1.18016 -6.11537,-1.98481 -6.11537,-4.1842 0,-1.7166 1.28745,-2.89676 3.96963,-2.89676 2.25303,0 4.34513,1.07288 6.49087,2.5749 l 3.54048,-4.77429 c -2.52125,-1.87752 -5.84715,-3.7014 -10.24593,-3.7014 -6.75909,0 -11.15787,3.80869 -11.15787,9.2267 0,4.98885 4.39878,7.29553 8.20747,8.74391 3.16498,1.2338 6.27631,2.25303 6.27631,4.50606 0,1.87753 -1.34109,3.16497 -4.34514,3.16497 -2.78946,0 -5.36436,-1.18016 -8.04654,-3.27226 l -3.59412,4.93522 c 2.9504,2.4676 7.40282,4.23784 11.42609,4.23784 z"
         style="font-style:normal;font-variant:normal;font-weight:bold;font-stretch:normal;font-family:'Noto Sans CJK TC';-inkscape-font-specification:'Noto Sans CJK TC Bold';fill:#ffffff;fill-opacity:1;stroke-width:1.34109032"
         id="path6007"
         inkscape:connector-curvature="0" />
    </g>
  </g>
</svg>
